<svg width="36" height="36" viewBox="0 0 36 36" fill="none" xmlns="http://www.w3.org/2000/svg">
<path d="M1.40625 10.9688H17.7297C17.9261 10.4225 18.1464 9.90308 18.3897 9.41611C19.7029 6.7901 21.562 5.34375 23.625 5.34375H28.9688C31.0317 5.34375 32.8909 6.7901 34.204 9.41611C35.3622 11.7326 36 14.781 36 18C36 21.219 35.3622 24.2674 34.204 26.5839C32.8909 29.2099 31.0317 30.6562 28.9688 30.6562H23.625C22.0487 30.6562 20.5919 29.8111 19.4062 28.2412V29.25C19.4062 30.0267 18.7767 30.6562 18 30.6562H1.40625C0.629517 30.6562 0 30.0267 0 29.25C0 28.7856 0 13.1108 0 12.375C0 11.5983 0.629517 10.9688 1.40625 10.9688ZM16.5938 19.4062H2.8125V22.2188H16.5938V19.4062ZM16.5938 13.7812H2.8125V16.5938H16.5938V13.7812ZM33.1875 18C33.1875 12.3659 30.9603 8.15625 28.9688 8.15625C26.9772 8.15625 24.75 12.3659 24.75 18C24.75 23.6341 26.9772 27.8438 28.9688 27.8438C30.9603 27.8438 33.1875 23.6341 33.1875 18ZM23.625 27.8438H24.466C22.6299 25.1277 21.9375 21.2706 21.9375 18C21.9375 14.731 22.6294 10.8734 24.466 8.15625H23.625C21.6335 8.15625 19.4062 12.3659 19.4062 18C19.4062 23.6341 21.6335 27.8438 23.625 27.8438ZM2.8125 27.8438H16.5938V25.0312H2.8125V27.8438Z" fill="white"/>
</svg>
