<svg width="36" height="36" viewBox="0 0 36 36" fill="none" xmlns="http://www.w3.org/2000/svg">
<g clip-path="url(#clip0_7729_1619)">
<path d="M4.17151 5.53162H5.53162V1.40625C5.53162 0.629517 6.16113 0 6.93787 0H29.0621C29.8389 0 30.4684 0.629517 30.4684 1.40625V5.53162H31.8285C34.134 5.53162 36 7.39764 36 9.70312V26.2969C36 28.5971 34.1288 30.4684 31.8285 30.4684H24.4237L25.7833 33.1875H29.0624C29.8391 33.1875 30.4687 33.817 30.4687 34.5938C30.4687 35.3705 29.8391 36 29.0624 36H6.93732C6.16086 36 5.53107 35.3705 5.53107 34.5938C5.53107 33.817 6.16086 33.1875 6.93732 33.1875H10.2167L11.5763 30.4684H4.17151C1.87125 30.4684 0 28.5971 0 26.2969V9.70312C0 7.40286 1.87125 5.53162 4.17151 5.53162ZM4.17151 8.34412C3.42224 8.34412 2.8125 8.95386 2.8125 9.70312V22.1251H5.53162V8.34412H4.17151ZM27.6559 2.8125H8.34412V22.1251H27.6559V2.8125ZM31.8285 8.34412H30.4684V22.1251H33.1875V9.70312C33.1875 8.95193 32.5794 8.34412 31.8285 8.34412ZM13.3613 33.1875H22.6387L21.2791 30.4684H14.7209L13.3613 33.1875ZM4.17151 27.6559H31.8285C32.5778 27.6559 33.1875 27.0461 33.1875 26.2969V24.9376H2.8125V26.2969C2.8125 27.0461 3.42224 27.6559 4.17151 27.6559ZM24.9376 9.70312C24.9376 8.92639 24.3081 8.29688 23.5313 8.29688H22.1484C21.3717 8.29688 20.7422 8.92639 20.7422 9.70312C20.7422 10.4799 21.3717 11.1094 22.1484 11.1094H23.5313C24.3078 11.1094 24.9376 10.4799 24.9376 9.70312ZM19.4062 9.70312C19.4062 8.92639 18.7767 8.29688 18 8.29688H12.4687C11.6919 8.29688 11.0624 8.92639 11.0624 9.70312C11.0624 10.4799 11.6919 11.1094 12.4687 11.1094H18C18.7767 11.1094 19.4062 10.4799 19.4062 9.70312ZM24.9376 16.5841C24.9376 15.8074 24.3081 15.1779 23.5313 15.1779H22.1484C21.3717 15.1779 20.7422 15.8074 20.7422 16.5841C20.7422 17.3609 21.3717 17.9904 22.1484 17.9904H23.5313C24.3078 17.9904 24.9376 17.3609 24.9376 16.5841ZM19.4062 16.5841C19.4062 15.8074 18.7767 15.1779 18 15.1779H12.4687C11.6919 15.1779 11.0624 15.8074 11.0624 16.5841C11.0624 17.3609 11.6919 17.9904 12.4687 17.9904H18C18.7767 17.9904 19.4062 17.3609 19.4062 16.5841Z" fill="white"/>
</g>
<defs>
<clipPath id="clip0_7729_1619">
<rect width="36" height="36" fill="white" transform="matrix(-1 0 0 1 36 0)"/>
</clipPath>
</defs>
</svg>
