<svg width="36" height="36" viewBox="0 0 36 36" fill="none" xmlns="http://www.w3.org/2000/svg">
<g clip-path="url(#clip0_7729_688)">
<path d="M1.40625 24.75H10.9688V17.7188C10.9688 16.9421 11.5983 16.3125 12.375 16.3125H23.625C24.4017 16.3125 25.0312 16.9421 25.0312 17.7188V21.9375H34.5938C35.3704 21.9375 36 22.5671 36 23.3438V34.5938C36 35.3704 35.3704 36 34.5938 36H1.40625C0.629578 36 0 35.3704 0 34.5938V26.1562C0 25.3796 0.629578 24.75 1.40625 24.75ZM25.0312 33.1875H33.1875V24.75H25.0312V33.1875ZM13.7812 26.1562V33.1875H22.2188V23.3438V19.125H13.7812V26.1562ZM2.8125 33.1875H10.9688V27.5625H2.8125V33.1875ZM21.8762 8.3913L22.3826 11.3442C22.4731 11.8718 22.2562 12.405 21.8232 12.7196C21.39 13.0343 20.816 13.0757 20.3422 12.8266L17.6903 11.4325L15.0384 12.8266C14.5627 13.0767 13.9887 13.0329 13.5575 12.7196C13.1245 12.405 12.9076 11.8718 12.9981 11.3442L13.5046 8.3913L11.3591 6.3C10.9758 5.92636 10.8378 5.36752 11.0033 4.85845C11.1687 4.34939 11.6087 3.97835 12.1385 3.90136L15.1034 3.47048L16.4294 0.783844C16.6662 0.303891 17.1551 0 17.6903 0C18.2256 0 18.7144 0.303891 18.9514 0.783844L20.2774 3.47048L23.2423 3.90136C23.772 3.97835 24.2121 4.34939 24.3775 4.85845C24.5429 5.36752 24.405 5.92636 24.0216 6.3L21.8762 8.3913ZM19.1412 6.14749C18.6832 6.08098 18.2872 5.79326 18.0824 5.37827L17.6903 4.58374L17.2981 5.3782C17.0933 5.79326 16.6974 6.08098 16.2393 6.14749L15.3625 6.2749L15.9969 6.89337C16.3284 7.21645 16.4796 7.68192 16.4014 8.13811L16.2516 9.01132L17.0358 8.59908C17.4454 8.38371 17.9349 8.38371 18.3445 8.59908L19.1288 9.01139L18.979 8.13818C18.9008 7.68199 19.052 7.21652 19.3834 6.89344L20.0179 6.27497L19.1412 6.14749Z" fill="white"/>
</g>
<defs>
<clipPath id="clip0_7729_688">
<rect width="36" height="36" fill="white" transform="matrix(-1 0 0 1 36 0)"/>
</clipPath>
</defs>
</svg>
